<svg width="1920" height="1080" viewBox="0 0 1920 1080" xmlns="http://www.w3.org/2000/svg"><path d="M1920,1080C1600.5,1086.5,304.8333333333333,1088.8333333333333,0,1080C-304.8333333333333,1071.1666666666667,60.83333333333333,1036,91,1027C121.16666666666667,1018,150.66666666666666,1020.5,181,1026C211.33333333333334,1031.5,242.66666666666666,1055.1666666666667,273,1060C303.3333333333333,1064.8333333333333,333.1666666666667,1057.5,363,1055C392.8333333333333,1052.5,421.6666666666667,1041.6666666666667,452,1045C482.3333333333333,1048.3333333333333,514.1666666666666,1077.8333333333333,545,1075C575.8333333333334,1072.1666666666667,606.3333333333334,1032.5,637,1028C667.6666666666666,1023.5,698.8333333333334,1047,729,1048C759.1666666666666,1049,788,1029.8333333333333,818,1034C848,1038.1666666666667,878.3333333333334,1066.8333333333333,909,1073C939.6666666666666,1079.1666666666667,971,1073.6666666666667,1002,1071C1033,1068.3333333333333,1064.3333333333333,1064,1095,1057C1125.6666666666667,1050,1156,1029.1666666666667,1186,1029C1216,1028.8333333333333,1244.1666666666667,1050,1275,1056C1305.8333333333333,1062,1339.8333333333333,1064.3333333333333,1371,1065C1402.1666666666667,1065.6666666666667,1432,1065.1666666666667,1462,1060C1492,1054.8333333333333,1520.5,1035.3333333333333,1551,1034C1581.5,1032.6666666666667,1614.1666666666667,1045.6666666666667,1645,1052C1675.8333333333333,1058.3333333333333,1706.1666666666667,1073.1666666666667,1736,1072C1765.8333333333333,1070.8333333333333,1793.8333333333333,1050.1666666666667,1824,1045C1854.1666666666667,1039.8333333333333,1901,1035.1666666666667,1917,1041C1933,1046.8333333333333,2239.5,1073.5,1920,1080C1600.5,1086.5,304.8333333333333,1088.8333333333333,0,1080" fill="#000000"/></svg>