<svg width="1920" height="1080" viewBox="0 0 1920 1080" xmlns="http://www.w3.org/2000/svg"><path d="M1920,1080C1601.3333333333333,1080.8333333333333,291.3333333333333,1088.3333333333333,0,1080C-291.3333333333333,1071.6666666666667,114.5,1037.5,172,1030C229.5,1022.5,287.8333333333333,1035.1666666666667,345,1035C402.1666666666667,1034.8333333333333,457,1025.1666666666667,515,1029C573,1032.8333333333333,634.1666666666666,1055.3333333333333,693,1058C751.8333333333334,1060.6666666666667,809.3333333333334,1049.6666666666667,868,1045C926.6666666666666,1040.3333333333333,986.6666666666666,1026.8333333333333,1045,1030C1103.3333333333333,1033.1666666666667,1159.5,1059.5,1218,1064C1276.5,1068.5,1337.6666666666667,1057.3333333333333,1396,1057C1454.3333333333333,1056.6666666666667,1510.5,1061.5,1568,1062C1625.5,1062.5,1683.6666666666667,1057.8333333333333,1741,1060C1798.3333333333333,1062.1666666666667,1882.1666666666667,1071.6666666666667,1912,1075C1941.8333333333333,1078.3333333333333,2238.6666666666665,1079.1666666666667,1920,1080C1601.3333333333333,1080.8333333333333,291.3333333333333,1088.3333333333333,0,1080" fill="#ffffff"/></svg>